<svg width="18" height="20" viewBox="0 0 18 20" xmlns="http://www.w3.org/2000/svg"><title>372EE38A-AAFE-403F-96AA-A186EAA4774B</title><path d="M8.95 11.657c3.623 0 6.46-1.365 7.29-5.315A9.84 9.84 0 0 0 16.305 6c.352.173.653.385.896.64.801.848.958 2.054.655 3.497-.725 3.456-3.207 4.65-6.378 4.65h-.49c-.387 0-.717.261-.778.617l-.04.199-.615 3.627-.033.154c-.06.355-.39.616-.777.616H5.472c-.29 0-.511-.24-.466-.506l.267-1.576.945-5.557c.07-.406.443-.704.886-.704h1.845zM10.09 0c2.23 0 3.972.432 4.938 1.441.876.917 1.132 1.93.878 3.417-.216-.105-.217-.105-.001 0-.02.113-.04.23-.066.349-.854 4.023-3.775 5.414-7.504 5.414h-1.9c-.456 0-.84.304-.912.717l.032-.183L4.552 17H.556c-.341 0-.602-.28-.55-.59L2.704.718c.07-.414.46-.718.915-.718h6.473z" fill="#3498DB" fill-rule="evenodd"/></svg>